<svg width="86" height="86" viewBox="0 0 86 86" fill="none" xmlns="http://www.w3.org/2000/svg">
<path d="M47.3 0.215V8.901C64.285 11.008 77.4 25.456 77.4 43C77.4 56.803 69.144 68.8 57.104 74.304L47.3 64.5V86H68.8L63.554 80.754C77.013 73.401 86 59.168 86 43C86 20.726 69.015 2.365 47.3 0.215ZM38.7 0C30.315 0.86 22.36 4.128 15.824 9.503L21.93 15.609C26.8109 11.8464 32.5933 9.42969 38.7 8.6V0ZM9.46 15.824C4.128 22.36 0.86 30.315 0 38.7H8.6C9.417 32.594 11.825 26.789 15.609 21.93L9.46 15.824ZM17.2 25.8V34.4H30.1V38.7H25.8C21.07 38.7 17.2 42.57 17.2 47.3V60.2H38.7V51.6H25.8V47.3H30.1C34.873 47.3 38.7 43.473 38.7 38.7V34.4C38.7 32.1191 37.7939 29.9317 36.1811 28.3189C34.5683 26.7061 32.3809 25.8 30.1 25.8H17.2ZM43 25.8V47.3H55.9V60.2H64.5V47.3H68.8V38.7H64.5V25.8H55.9V38.7H51.6V25.8H43ZM0 47.3C0.86 55.685 4.171 63.64 9.546 70.176L15.652 64.07C11.8766 59.1921 9.44524 53.4101 8.6 47.3H0ZM21.973 70.391L15.824 76.497C22.3573 81.8313 30.3101 85.135 38.7 86V77.4C32.6012 76.5892 26.828 74.1701 21.973 70.391Z" fill="#7D7D7D"/>
</svg>
