<svg width="55" height="69" viewBox="0 0 55 69" fill="none" xmlns="http://www.w3.org/2000/svg">
<path d="M30.9375 24.0625H49.8438L30.9375 5.15625V24.0625ZM6.875 0H34.375L55 20.625V61.875C55 63.6984 54.2757 65.4471 52.9864 66.7364C51.697 68.0257 49.9484 68.75 48.125 68.75H6.875C5.05164 68.75 3.30295 68.0257 2.01364 66.7364C0.724328 65.4471 0 63.6984 0 61.875V6.875C0 3.05938 3.05938 0 6.875 0ZM28.05 42.3156C22.6875 42.3156 17.8406 44.3094 14.1281 47.5406L6.875 40.2875V58.4375H25.025L17.7031 51.15C20.5219 48.8125 24.0625 47.3688 28.05 47.3688C35.1656 47.3688 41.25 52.0094 43.3469 58.4375L48.125 56.8563C45.3406 48.4344 37.4 42.3156 28.05 42.3156Z" fill="#FFA500"></path>
</svg>
