<svg width="55" height="78" viewBox="0 0 55 78" fill="none" xmlns="http://www.w3.org/2000/svg">
<path d="M19.6429 23.4C19.6429 22.3657 20.0568 21.3737 20.7935 20.6423C21.5303 19.9109 22.5295 19.5 23.5714 19.5C24.6133 19.5 25.6126 19.9109 26.3493 20.6423C27.0861 21.3737 27.5 22.3657 27.5 23.4V40.833L32.2536 41.34L51.6607 49.881C53.7429 50.817 55 52.884 55 55.146V72.15C54.8821 75.348 52.3286 77.883 49.1071 78H23.5714C22.0786 78 20.6643 77.415 19.6429 76.323L0.392857 59.943L3.3 56.94C4.04643 56.121 5.10714 55.692 6.20714 55.692H7.07143L19.6429 62.4V23.4ZM23.5714 7.8C27.7391 7.8 31.7361 9.44357 34.6831 12.3691C37.6301 15.2947 39.2857 19.2626 39.2857 23.4C39.2857 29.25 36.1429 34.203 31.4286 36.894V32.136C33.825 29.991 35.3571 26.871 35.3571 23.4C35.3571 20.297 34.1154 17.321 31.9052 15.1269C29.6949 12.9327 26.6972 11.7 23.5714 11.7C20.4457 11.7 17.4479 12.9327 15.2377 15.1269C13.0274 17.321 11.7857 20.297 11.7857 23.4C11.7857 26.871 13.3179 29.991 15.7143 32.136V36.894C11 34.203 7.85714 29.25 7.85714 23.4C7.85714 19.2626 9.51275 15.2947 12.4598 12.3691C15.4067 9.44357 19.4037 7.8 23.5714 7.8ZM23.5714 0C29.823 0 35.8184 2.46535 40.2389 6.8537C44.6594 11.2421 47.1429 17.1939 47.1429 23.4C47.1429 30.03 44.3536 35.997 39.9143 40.287L35.9857 38.532C38.2432 36.6977 40.0625 34.3889 41.3125 31.7722C42.5625 29.1555 43.212 26.296 43.2143 23.4C43.2143 18.2283 41.1448 13.2684 37.461 9.61142C33.7773 5.95446 28.781 3.9 23.5714 3.9C18.3618 3.9 13.3656 5.95446 9.68183 9.61142C5.99808 13.2684 3.92857 18.2283 3.92857 23.4C3.92857 31.395 8.76071 38.259 15.7143 41.262V45.474C6.56071 42.237 0 33.579 0 23.4C0 17.1939 2.48341 11.2421 6.90391 6.8537C11.3244 2.46535 17.3199 0 23.5714 0Z" fill="#004998"></path>
</svg>
