<svg width="40" height="40" viewBox="0 0 40 40" fill="none" xmlns="http://www.w3.org/2000/svg">
<path d="M11.3508 0H27.7899C34.0524 0 39.1407 5.08829 39.1407 11.3508V27.7899C39.1407 30.8003 37.9448 33.6874 35.8161 35.8161C33.6874 37.9448 30.8003 39.1407 27.7899 39.1407H11.3508C5.08829 39.1407 0 34.0524 0 27.7899V11.3508C0 8.34038 1.19588 5.45326 3.32457 3.32457C5.45326 1.19588 8.34038 0 11.3508 0ZM10.9594 3.91407C9.09086 3.91407 7.29885 4.65634 5.9776 5.9776C4.65634 7.29885 3.91407 9.09086 3.91407 10.9594V28.1813C3.91407 32.0758 7.0649 35.2266 10.9594 35.2266H28.1813C30.0498 35.2266 31.8418 34.4844 33.1631 33.1631C34.4844 31.8418 35.2266 30.0498 35.2266 28.1813V10.9594C35.2266 7.0649 32.0758 3.91407 28.1813 3.91407H10.9594ZM29.8448 6.84962C30.4936 6.84962 31.1158 7.10736 31.5746 7.56612C32.0333 8.02489 32.2911 8.64712 32.2911 9.29591C32.2911 9.94471 32.0333 10.5669 31.5746 11.0257C31.1158 11.4845 30.4936 11.7422 29.8448 11.7422C29.196 11.7422 28.5738 11.4845 28.115 11.0257C27.6562 10.5669 27.3985 9.94471 27.3985 9.29591C27.3985 8.64712 27.6562 8.02489 28.115 7.56612C28.5738 7.10736 29.196 6.84962 29.8448 6.84962ZM19.5703 9.78517C22.1655 9.78517 24.6544 10.8161 26.4895 12.6512C28.3246 14.4863 29.3555 16.9752 29.3555 19.5703C29.3555 22.1655 28.3246 24.6544 26.4895 26.4895C24.6544 28.3246 22.1655 29.3555 19.5703 29.3555C16.9752 29.3555 14.4863 28.3246 12.6512 26.4895C10.8161 24.6544 9.78517 22.1655 9.78517 19.5703C9.78517 16.9752 10.8161 14.4863 12.6512 12.6512C14.4863 10.8161 16.9752 9.78517 19.5703 9.78517ZM19.5703 13.6992C18.0132 13.6992 16.5199 14.3178 15.4188 15.4188C14.3178 16.5199 13.6992 18.0132 13.6992 19.5703C13.6992 21.1275 14.3178 22.6208 15.4188 23.7218C16.5199 24.8229 18.0132 25.4415 19.5703 25.4415C21.1275 25.4415 22.6208 24.8229 23.7218 23.7218C24.8229 22.6208 25.4415 21.1275 25.4415 19.5703C25.4415 18.0132 24.8229 16.5199 23.7218 15.4188C22.6208 14.3178 21.1275 13.6992 19.5703 13.6992Z" fill="#F8F8F8"/>
</svg>
