<svg width="36" height="36" viewBox="0 0 36 36" fill="none" xmlns="http://www.w3.org/2000/svg">
<path d="M31.6368 0C32.6748 0 33.6704 0.412374 34.4044 1.1464C35.1385 1.88043 35.5508 2.87599 35.5508 3.91407V31.3126C35.5508 32.3506 35.1385 33.3462 34.4044 34.0802C33.6704 34.8142 32.6748 35.2266 31.6368 35.2266H4.23829C3.20021 35.2266 2.20465 34.8142 1.47062 34.0802C0.736593 33.3462 0.324219 32.3506 0.324219 31.3126V3.91407C0.324219 2.87599 0.736593 1.88043 1.47062 1.1464C2.20465 0.412374 3.20021 0 4.23829 0H31.6368ZM30.6583 30.334V19.9618C30.6583 18.2697 29.9861 16.6469 28.7896 15.4505C27.5931 14.254 25.9704 13.5818 24.2783 13.5818C22.6148 13.5818 20.6774 14.5995 19.738 16.126V13.9537H14.2779V30.334H19.738V20.6859C19.738 19.1789 20.9514 17.946 22.4583 17.946C23.1849 17.946 23.8818 18.2347 24.3956 18.7485C24.9095 19.2623 25.1981 19.9592 25.1981 20.6859V30.334H30.6583ZM7.91751 10.8811C8.7895 10.8811 9.62577 10.5347 10.2424 9.91813C10.8589 9.30155 11.2053 8.46528 11.2053 7.59329C11.2053 5.77325 9.73756 4.28591 7.91751 4.28591C7.04034 4.28591 6.19909 4.63436 5.57884 5.25462C4.95858 5.87487 4.61012 6.71612 4.61012 7.59329C4.61012 9.41334 6.09747 10.8811 7.91751 10.8811ZM10.6378 30.334V13.9537H5.21681V30.334H10.6378Z" fill="#F8F8F8"/>
</svg>
