<svg width="41" height="35" viewBox="0 0 41 35" fill="none" xmlns="http://www.w3.org/2000/svg">
<path d="M40.9998 4.8711C39.4928 5.55606 37.8685 6.00618 36.1855 6.22145C37.9076 5.18423 39.2384 3.54032 39.8647 1.56371C38.2403 2.54223 36.4399 3.22719 34.5415 3.6186C32.9955 1.93555 30.8232 0.957031 28.3573 0.957031C23.7583 0.957031 20.0008 4.71454 20.0008 9.35271C20.0008 10.0181 20.0791 10.6639 20.2161 11.2706C13.249 10.9183 7.04521 7.57181 2.91586 2.50309C2.19176 3.73602 1.78078 5.18423 1.78078 6.71071C1.78078 9.62669 3.24856 12.21 5.51872 13.6778C4.12923 13.6778 2.83758 13.2863 1.7025 12.6992V12.7579C1.7025 16.8286 4.59891 20.2338 8.4347 20.9971C7.20319 21.3341 5.91031 21.381 4.65763 21.1341C5.18917 22.8024 6.23018 24.2622 7.63431 25.3083C9.03844 26.3544 10.7351 26.9341 12.4858 26.966C9.51818 29.3153 5.83967 30.5852 2.05477 30.567C1.38938 30.567 0.723986 30.5278 0.0585938 30.4495C3.77696 32.8371 8.19986 34.2266 12.9359 34.2266C28.3573 34.2266 36.8313 21.4276 36.8313 10.3312C36.8313 9.95939 36.8313 9.60712 36.8117 9.23529C38.4556 8.06107 39.8647 6.57372 40.9998 4.8711Z" fill="#F8F8F8"/>
</svg>
